<?xml version="1.0" encoding="UTF-8" standalone="no"?>
<!-- Created with Inkscape (http://www.inkscape.org/) -->

<svg
   xmlns:dc="http://purl.org/dc/elements/1.1/"
   xmlns:cc="http://creativecommons.org/ns#"
   xmlns:rdf="http://www.w3.org/1999/02/22-rdf-syntax-ns#"
   xmlns:svg="http://www.w3.org/2000/svg"
   xmlns="http://www.w3.org/2000/svg"
   xmlns:sodipodi="http://sodipodi.sourceforge.net/DTD/sodipodi-0.dtd"
   xmlns:inkscape="http://www.inkscape.org/namespaces/inkscape"
   width="210mm"
   height="297mm"
   viewBox="0 0 744.09448819 1052.3622047"
   id="svg2"
   version="1.1"
   inkscape:version="0.91 r13725"
   sodipodi:docname="icon-plotline.svg">
  <defs
     id="defs4">
    <marker
       inkscape:stockid="EmptyTriangleOutL"
       orient="auto"
       refY="0.0"
       refX="0.0"
       id="marker5770"
       style="overflow:visible"
       inkscape:isstock="true">
      <path
         id="path5772"
         d="M 5.77,0.0 L -2.88,5.0 L -2.88,-5.0 L 5.77,0.0 z "
         style="fill-rule:evenodd;fill:#008000;stroke:#008000;stroke-width:1pt;stroke-opacity:1;fill-opacity:1"
         transform="scale(0.8) translate(-6,0)" />
    </marker>
    <marker
       inkscape:stockid="Arrow1Lstart"
       orient="auto"
       refY="0.0"
       refX="0.0"
       id="marker5718"
       style="overflow:visible"
       inkscape:isstock="true">
      <path
         id="path5720"
         d="M 0.0,0.0 L 5.0,-5.0 L -12.5,0.0 L 5.0,5.0 L 0.0,0.0 z "
         style="fill-rule:evenodd;stroke:#008000;stroke-width:1pt;stroke-opacity:1;fill:#008000;fill-opacity:1"
         transform="scale(0.8) translate(12.5,0)" />
    </marker>
    <marker
       inkscape:isstock="true"
       style="overflow:visible"
       id="marker5590"
       refX="0.0"
       refY="0.0"
       orient="auto"
       inkscape:stockid="EmptyTriangleOutL"
       inkscape:collect="always">
      <path
         transform="scale(0.8) translate(-6,0)"
         style="fill-rule:evenodd;fill:#0000ff;stroke:#0000ff;stroke-width:1pt;stroke-opacity:1;fill-opacity:1"
         d="M 5.77,0.0 L -2.88,5.0 L -2.88,-5.0 L 5.77,0.0 z "
         id="path5592" />
    </marker>
    <marker
       inkscape:isstock="true"
       style="overflow:visible"
       id="marker5550"
       refX="0.0"
       refY="0.0"
       orient="auto"
       inkscape:stockid="Arrow1Lstart"
       inkscape:collect="always">
      <path
         transform="scale(0.8) translate(12.5,0)"
         style="fill-rule:evenodd;stroke:#0000ff;stroke-width:1pt;stroke-opacity:1;fill:#0000ff;fill-opacity:1"
         d="M 0.0,0.0 L 5.0,-5.0 L -12.5,0.0 L 5.0,5.0 L 0.0,0.0 z "
         id="path5552" />
    </marker>
    <marker
       inkscape:stockid="EmptyTriangleOutL"
       orient="auto"
       refY="0.0"
       refX="0.0"
       id="EmptyTriangleOutL"
       style="overflow:visible"
       inkscape:isstock="true"
       inkscape:collect="always">
      <path
         id="path4302"
         d="M 5.77,0.0 L -2.88,5.0 L -2.88,-5.0 L 5.77,0.0 z "
         style="fill-rule:evenodd;fill:#000000;stroke:#000000;stroke-width:1pt;stroke-opacity:1;fill-opacity:1"
         transform="scale(0.8) translate(-6,0)" />
    </marker>
    <marker
       inkscape:stockid="Arrow1Lstart"
       orient="auto"
       refY="0.0"
       refX="0.0"
       id="Arrow1Lstart"
       style="overflow:visible"
       inkscape:isstock="true"
       inkscape:collect="always">
      <path
         id="path4142"
         d="M 0.0,0.0 L 5.0,-5.0 L -12.5,0.0 L 5.0,5.0 L 0.0,0.0 z "
         style="fill-rule:evenodd;stroke:#000000;stroke-width:1pt;stroke-opacity:1;fill:#000000;fill-opacity:1"
         transform="scale(0.8) translate(12.5,0)" />
    </marker>
    <marker
       inkscape:stockid="DotL"
       orient="auto"
       refY="0.0"
       refX="0.0"
       id="DotL"
       style="overflow:visible"
       inkscape:isstock="true">
      <path
         id="path4203"
         d="M -2.5,-1.0 C -2.5,1.7600000 -4.7400000,4.0 -7.5,4.0 C -10.260000,4.0 -12.5,1.7600000 -12.5,-1.0 C -12.5,-3.7600000 -10.260000,-6.0 -7.5,-6.0 C -4.7400000,-6.0 -2.5,-3.7600000 -2.5,-1.0 z "
         style="fill-rule:evenodd;stroke:#000000;stroke-width:1pt;stroke-opacity:1;fill:#000000;fill-opacity:1"
         transform="scale(0.8) translate(7.4, 1)" />
    </marker>
    <marker
       inkscape:stockid="TriangleOutL"
       orient="auto"
       refY="0.0"
       refX="0.0"
       id="TriangleOutL"
       style="overflow:visible"
       inkscape:isstock="true">
      <path
         id="path4284"
         d="M 5.77,0.0 L -2.88,5.0 L -2.88,-5.0 L 5.77,0.0 z "
         style="fill-rule:evenodd;stroke:#000000;stroke-width:1pt;stroke-opacity:1;fill:#000000;fill-opacity:1"
         transform="scale(0.8)" />
    </marker>
  </defs>
  <sodipodi:namedview
     id="base"
     pagecolor="#ffffff"
     bordercolor="#666666"
     borderopacity="1.0"
     inkscape:pageopacity="0.0"
     inkscape:pageshadow="2"
     inkscape:zoom="0.98994949"
     inkscape:cx="190.89813"
     inkscape:cy="859.8821"
     inkscape:document-units="px"
     inkscape:current-layer="g6536"
     showgrid="false"
     inkscape:window-width="1920"
     inkscape:window-height="1015"
     inkscape:window-x="0"
     inkscape:window-y="0"
     inkscape:window-maximized="1" />
  <metadata
     id="metadata7">
    <rdf:RDF>
      <cc:Work
         rdf:about="">
        <dc:format>image/svg+xml</dc:format>
        <dc:type
           rdf:resource="http://purl.org/dc/dcmitype/StillImage" />
        <dc:title></dc:title>
      </cc:Work>
    </rdf:RDF>
  </metadata>
  <g
     inkscape:label="Layer 1"
     inkscape:groupmode="layer"
     id="layer1">
    <g
       transform="matrix(0.99582987,0,0,0.99582987,0.31573872,102.56925)"
       id="g5696">
      <g
         id="g6498"
         transform="translate(15.21574,-1.0143827)"
         inkscape:export-xdpi="16.65"
         inkscape:export-ydpi="16.65">
        <g
           transform="translate(0,-102.02541)"
           style="fill:#000000"
           id="g5534">
          <path
             style="fill:#000000;fill-rule:evenodd;stroke:#000000;stroke-width:5;stroke-linecap:butt;stroke-linejoin:miter;stroke-miterlimit:4;stroke-dasharray:none;stroke-opacity:1;marker-mid:url(#Arrow1Lstart);marker-end:url(#EmptyTriangleOutL)"
             d="m 75.714286,181.42639 238.159474,0"
             id="path4136"
             inkscape:connector-curvature="0" />
          <path
             style="opacity:1;fill:#000000;fill-opacity:1;fill-rule:nonzero;stroke:none;stroke-width:5;stroke-linecap:butt;stroke-linejoin:miter;stroke-miterlimit:4;stroke-dasharray:none;stroke-opacity:1"
             id="path5480"
             sodipodi:type="arc"
             sodipodi:cx="96.215752"
             sodipodi:cy="181.42639"
             sodipodi:rx="14.393398"
             sodipodi:ry="14.393398"
             sodipodi:start="0"
             sodipodi:end="6.2652782"
             sodipodi:open="true"
             d="M 110.60915,181.42639 A 14.393398,14.393398 0 0 1 96.280187,195.81965 14.393398,14.393398 0 0 1 81.82293,181.55526 14.393398,14.393398 0 0 1 96.022449,167.03429 14.393398,14.393398 0 0 1 110.60684,181.16866" />
          <path
             d="m 167.1777,181.42639 a 14.393398,14.393398 0 0 1 -14.32896,14.39326 14.393398,14.393398 0 0 1 -14.45726,-14.26439 14.393398,14.393398 0 0 1 14.19952,-14.52097 14.393398,14.393398 0 0 1 14.58439,14.13437"
             sodipodi:open="true"
             sodipodi:end="6.2652782"
             sodipodi:start="0"
             sodipodi:ry="14.393398"
             sodipodi:rx="14.393398"
             sodipodi:cy="181.42639"
             sodipodi:cx="152.7843"
             sodipodi:type="arc"
             id="path5518"
             style="opacity:1;fill:#000000;fill-opacity:1;fill-rule:nonzero;stroke:none;stroke-width:5;stroke-linecap:butt;stroke-linejoin:miter;stroke-miterlimit:4;stroke-dasharray:none;stroke-opacity:1" />
          <path
             style="opacity:1;fill:#000000;fill-opacity:1;fill-rule:nonzero;stroke:none;stroke-width:5;stroke-linecap:butt;stroke-linejoin:miter;stroke-miterlimit:4;stroke-dasharray:none;stroke-opacity:1"
             id="path5520"
             sodipodi:type="arc"
             sodipodi:cx="204.30208"
             sodipodi:cy="181.42639"
             sodipodi:rx="14.393398"
             sodipodi:ry="14.393398"
             sodipodi:start="0"
             sodipodi:end="6.2652782"
             sodipodi:open="true"
             d="m 218.69548,181.42639 a 14.393398,14.393398 0 0 1 -14.32897,14.39326 14.393398,14.393398 0 0 1 -14.45725,-14.26439 14.393398,14.393398 0 0 1 14.19952,-14.52097 14.393398,14.393398 0 0 1 14.58439,14.13437" />
        </g>
        <g
           transform="translate(0,-49.497475)"
           id="g5540">
          <path
             sodipodi:nodetypes="ccsc"
             inkscape:connector-curvature="0"
             id="path5542"
             d="m 75.714286,181.42639 119.079734,0 c 0,0 24.47751,12.17259 33.16592,20.79485 8.68841,8.62225 18.96456,30.93867 18.96456,30.93867"
             style="fill:none;fill-rule:evenodd;stroke:#008000;stroke-width:4.9998498;stroke-linecap:butt;stroke-linejoin:miter;stroke-miterlimit:4;stroke-dasharray:none;stroke-opacity:1" />
          <path
             d="M 110.60915,181.42639 A 14.393398,14.393398 0 0 1 96.280187,195.81965 14.393398,14.393398 0 0 1 81.82293,181.55526 14.393398,14.393398 0 0 1 96.022449,167.03429 14.393398,14.393398 0 0 1 110.60684,181.16866"
             sodipodi:open="true"
             sodipodi:end="6.2652782"
             sodipodi:start="0"
             sodipodi:ry="14.393398"
             sodipodi:rx="14.393398"
             sodipodi:cy="181.42639"
             sodipodi:cx="96.215752"
             sodipodi:type="arc"
             id="path5544"
             style="opacity:1;fill:#008000;fill-opacity:1;fill-rule:nonzero;stroke:none;stroke-width:5;stroke-linecap:butt;stroke-linejoin:miter;stroke-miterlimit:4;stroke-dasharray:none;stroke-opacity:1" />
          <path
             style="opacity:1;fill:#008000;fill-opacity:1;fill-rule:nonzero;stroke:none;stroke-width:5;stroke-linecap:butt;stroke-linejoin:miter;stroke-miterlimit:4;stroke-dasharray:none;stroke-opacity:1"
             id="path5546"
             sodipodi:type="arc"
             sodipodi:cx="152.7843"
             sodipodi:cy="181.42639"
             sodipodi:rx="14.393398"
             sodipodi:ry="14.393398"
             sodipodi:start="0"
             sodipodi:end="6.2652782"
             sodipodi:open="true"
             d="m 167.1777,181.42639 a 14.393398,14.393398 0 0 1 -14.32896,14.39326 14.393398,14.393398 0 0 1 -14.45726,-14.26439 14.393398,14.393398 0 0 1 14.19952,-14.52097 14.393398,14.393398 0 0 1 14.58439,14.13437" />
          <path
             d="m 218.69548,181.42639 a 14.393398,14.393398 0 0 1 -14.32897,14.39326 14.393398,14.393398 0 0 1 -14.45725,-14.26439 14.393398,14.393398 0 0 1 14.19952,-14.52097 14.393398,14.393398 0 0 1 14.58439,14.13437"
             sodipodi:open="true"
             sodipodi:end="6.2652782"
             sodipodi:start="0"
             sodipodi:ry="14.393398"
             sodipodi:rx="14.393398"
             sodipodi:cy="181.42639"
             sodipodi:cx="204.30208"
             sodipodi:type="arc"
             id="path5548"
             style="opacity:1;fill:#008000;fill-opacity:1;fill-rule:nonzero;stroke:none;stroke-width:5;stroke-linecap:butt;stroke-linejoin:miter;stroke-miterlimit:4;stroke-dasharray:none;stroke-opacity:1" />
        </g>
        <path
           style="fill:#0000ff;fill-rule:evenodd;stroke:#0000ff;stroke-width:5;stroke-linecap:butt;stroke-linejoin:miter;stroke-miterlimit:4;stroke-dasharray:none;stroke-opacity:1;marker-mid:url(#marker5550);marker-end:url(#marker5590)"
           d="m 75.714286,181.42639 238.159474,0"
           id="path5698"
           inkscape:connector-curvature="0" />
        <path
           style="opacity:1;fill:#0000ff;fill-opacity:1;fill-rule:nonzero;stroke:none;stroke-width:5;stroke-linecap:butt;stroke-linejoin:miter;stroke-miterlimit:4;stroke-dasharray:none;stroke-opacity:1"
           id="path5700"
           sodipodi:type="arc"
           sodipodi:cx="96.215752"
           sodipodi:cy="181.42639"
           sodipodi:rx="14.393398"
           sodipodi:ry="14.393398"
           sodipodi:start="0"
           sodipodi:end="6.2652782"
           sodipodi:open="true"
           d="M 110.60915,181.42639 A 14.393398,14.393398 0 0 1 96.280187,195.81965 14.393398,14.393398 0 0 1 81.82293,181.55526 14.393398,14.393398 0 0 1 96.022449,167.03429 14.393398,14.393398 0 0 1 110.60684,181.16866" />
        <path
           d="m 259.48652,181.42639 a 14.393398,14.393398 0 0 1 -14.32896,14.39326 14.393398,14.393398 0 0 1 -14.45726,-14.26439 14.393398,14.393398 0 0 1 14.19952,-14.52097 14.393398,14.393398 0 0 1 14.5844,14.13437"
           sodipodi:open="true"
           sodipodi:end="6.2652782"
           sodipodi:start="0"
           sodipodi:ry="14.393398"
           sodipodi:rx="14.393398"
           sodipodi:cy="181.42639"
           sodipodi:cx="245.09312"
           sodipodi:type="arc"
           id="path5702"
           style="opacity:1;fill:#0000ff;fill-opacity:1;fill-rule:nonzero;stroke:none;stroke-width:5;stroke-linecap:butt;stroke-linejoin:miter;stroke-miterlimit:4;stroke-dasharray:none;stroke-opacity:1" />
      </g>
      <g
         id="g6536"
         style="stroke:#008000"
         transform="translate(15.21574,-1.0143827)"
         inkscape:export-xdpi="16.65"
         inkscape:export-ydpi="16.65">
        <path
           inkscape:connector-curvature="0"
           id="path6532"
           d="m 266.46558,106.76079 0,125.78345"
           style="fill:none;fill-rule:evenodd;stroke:#008000;stroke-width:20.08375168;stroke-linecap:butt;stroke-linejoin:miter;stroke-miterlimit:4;stroke-dasharray:none;stroke-opacity:1" />
        <path
           style="fill:none;fill-rule:evenodd;stroke:#008000;stroke-width:20.08375168;stroke-linecap:butt;stroke-linejoin:miter;stroke-miterlimit:4;stroke-dasharray:none;stroke-opacity:1"
           d="m 203.57385,169.65252 125.78345,0"
           id="path6534"
           inkscape:connector-curvature="0"
           inkscape:export-xdpi="16.65"
           inkscape:export-ydpi="16.65" />
      </g>
      <rect
         style="opacity:1;fill:none;fill-opacity:1;fill-rule:nonzero;stroke:#000000;stroke-width:1.05381763;stroke-linecap:butt;stroke-linejoin:miter;stroke-miterlimit:4;stroke-dasharray:none;stroke-opacity:0"
         id="rect6540"
         width="259.54163"
         height="257.4126"
         x="86.532951"
         y="8.993144"
         inkscape:export-xdpi="16.65"
         inkscape:export-ydpi="16.65" />
      <g
         inkscape:export-ydpi="16.65"
         inkscape:export-xdpi="16.65"
         transform="translate(15.21574,-1.0143827)"
         style="stroke:#008000"
         id="g6542">
        <path
           style="fill:none;fill-rule:evenodd;stroke:#008000;stroke-width:20.08375168;stroke-linecap:butt;stroke-linejoin:miter;stroke-miterlimit:4;stroke-dasharray:none;stroke-opacity:1"
           d="m 266.46558,106.76079 0,125.78345"
           id="path6544"
           inkscape:connector-curvature="0" />
        <path
           inkscape:connector-curvature="0"
           id="path6546"
           d="m 203.57385,169.65252 125.78345,0"
           style="fill:none;fill-rule:evenodd;stroke:#008000;stroke-width:20.08375168;stroke-linecap:butt;stroke-linejoin:miter;stroke-miterlimit:4;stroke-dasharray:none;stroke-opacity:1" />
      </g>
    </g>
  </g>
</svg>
